<?xml version="1.0" encoding="UTF-8"?>
<!DOCTYPE svg PUBLIC "-//W3C//DTD SVG 1.1//EN" "http://www.w3.org/Graphics/SVG/1.1/DTD/svg11.dtd">
<svg xmlns="http://www.w3.org/2000/svg" version="1.1" width="161px" height="157px" style="shape-rendering:geometricPrecision; text-rendering:geometricPrecision; image-rendering:optimizeQuality; fill-rule:evenodd; clip-rule:evenodd" xmlns:xlink="http://www.w3.org/1999/xlink">
<g><path style="opacity:0.004" fill="#fefffe" d="M 63.5,0.5 C 64.8333,1.16667 64.8333,1.16667 63.5,0.5 Z"/></g>
<g><path style="opacity:0.004" fill="#fefffe" d="M 135.5,1.5 C 136.833,2.16667 136.833,2.16667 135.5,1.5 Z"/></g>
<g><path style="opacity:0.004" fill="#fefffe" d="M 59.5,3.5 C 60.8333,4.16667 60.8333,4.16667 59.5,3.5 Z"/></g>
<g><path style="opacity:0.004" fill="#fefffe" d="M 137.5,4.5 C 138.833,5.16667 138.833,5.16667 137.5,4.5 Z"/></g>
<g><path style="opacity:0.004" fill="#fefffe" d="M 48.5,6.5 C 49.8333,7.16667 49.8333,7.16667 48.5,6.5 Z"/></g>
<g><path style="opacity:0.416" fill="#c2553f" d="M 58.5,7.5 C 88.5,7.5 118.5,7.5 148.5,7.5C 149.362,20.2646 149.362,32.9312 148.5,45.5C 136.796,45.2304 125.129,45.5637 113.5,46.5C 113.5,45.1667 114.167,44.5 115.5,44.5C 126.167,44.5 136.833,44.5 147.5,44.5C 147.5,32.5 147.5,20.5 147.5,8.5C 117.662,8.83141 87.9953,8.49808 58.5,7.5 Z"/></g>
<g><path style="opacity:0.004" fill="#fefffe" d="M 149.5,8.5 C 150.833,9.16667 150.833,9.16667 149.5,8.5 Z"/></g>
<g><path style="opacity:1" fill="#e34929" d="M 58.5,7.5 C 87.9953,8.49808 117.662,8.83141 147.5,8.5C 147.5,20.5 147.5,32.5 147.5,44.5C 136.833,44.5 126.167,44.5 115.5,44.5C 125.291,42.9543 135.291,42.2877 145.5,42.5C 145.552,33.4818 145.218,24.4818 144.5,15.5C 141.833,15.5 139.167,15.5 136.5,15.5C 136.67,14.1779 136.337,13.0113 135.5,12C 133.5,11.5 131.5,11 129.5,10.5C 125.655,12.9679 121.655,13.1345 117.5,11C 102.163,10.5979 86.83,10.0979 71.5,9.5C 62.3889,8.8853 53.7222,10.3853 45.5,14C 44.3595,14.7412 44.3595,15.5745 45.5,16.5C 44.2402,17.3816 43.0736,18.3816 42,19.5C 41.6532,17.8198 40.6532,16.8198 39,16.5C 37.022,17.9056 34.8553,18.9056 32.5,19.5C 33.8333,18.1667 35.1667,16.8333 36.5,15.5C 43.2041,11.3163 50.5374,8.64966 58.5,7.5 Z"/></g>
<g><path style="opacity:1" fill="#ed4524" d="M 115.5,44.5 C 114.167,44.5 113.5,45.1667 113.5,46.5C 112.833,46.1667 112.167,45.8333 111.5,45.5C 111.5,44.8333 111.167,44.5 110.5,44.5C 90.0435,43.3772 69.5435,43.3772 49,44.5C 45.8486,46.0516 45.682,47.8849 48.5,50C 47.2068,50.49 45.8734,50.6567 44.5,50.5C 44.3357,53.8174 43.3357,56.8174 41.5,59.5C 40.4298,70.1399 40.2631,80.8066 41,91.5C 42.1356,94.0964 42.969,96.763 43.5,99.5C 41.2712,98.9447 39.6046,97.6114 38.5,95.5C 37.0179,91.6563 36.1845,87.6563 36,83.5C 35.8038,81.7139 34.9705,80.3805 33.5,79.5C 33.1282,82.6876 32.9616,86.3542 33,90.5C 31.1079,91.6174 30.2746,93.2841 30.5,95.5C 25.1254,95.1718 19.7921,95.5052 14.5,96.5C 13.2125,100.392 12.5458,104.725 12.5,109.5C 16.0993,109.262 16.4327,110.262 13.5,112.5C 14.2458,113.736 14.5792,115.07 14.5,116.5C 15.5,116.5 16.5,116.5 17.5,116.5C 18.5091,119.049 19.3425,121.715 20,124.5C 21.3333,125.167 22.6667,125.833 24,126.5C 24.9491,129.34 26.4491,131.84 28.5,134C 27.7476,134.671 27.4142,135.504 27.5,136.5C 24.0839,134.252 21.5839,131.252 20,127.5C 19.6174,128.056 19.1174,128.389 18.5,128.5C 18.6567,127.127 18.49,125.793 18,124.5C 16.9331,122.308 15.4331,120.642 13.5,119.5C 12.613,114.331 11.613,109.164 10.5,104C 10.3917,102.319 9.72507,101.152 8.5,100.5C 8.5,87.1667 8.5,73.8333 8.5,60.5C 8.87378,55.6748 9.87378,51.0082 11.5,46.5C 15.2394,40.6948 18.7394,34.6948 22,28.5C 25.0781,24.9155 28.5781,21.9155 32.5,19.5C 34.8553,18.9056 37.022,17.9056 39,16.5C 40.6532,16.8198 41.6532,17.8198 42,19.5C 43.0736,18.3816 44.2402,17.3816 45.5,16.5C 44.3595,15.5745 44.3595,14.7412 45.5,14C 53.7222,10.3853 62.3889,8.8853 71.5,9.5C 86.83,10.0979 102.163,10.5979 117.5,11C 121.655,13.1345 125.655,12.9679 129.5,10.5C 131.5,11 133.5,11.5 135.5,12C 136.337,13.0113 136.67,14.1779 136.5,15.5C 139.167,15.5 141.833,15.5 144.5,15.5C 145.218,24.4818 145.552,33.4818 145.5,42.5C 135.291,42.2877 125.291,42.9543 115.5,44.5 Z"/></g>
<g><path style="opacity:0.004" fill="#fefffe" d="M 20.5,21.5 C 20.8966,20.475 21.5632,20.3083 22.5,21C 21.9056,21.4643 21.2389,21.631 20.5,21.5 Z"/></g>
<g><path style="opacity:0.651" fill="#c24b38" d="M 36.5,15.5 C 35.1667,16.8333 33.8333,18.1667 32.5,19.5C 28.5781,21.9155 25.0781,24.9155 22,28.5C 18.7394,34.6948 15.2394,40.6948 11.5,46.5C 15.3428,32.4481 23.6761,22.1147 36.5,15.5 Z"/></g>
<g><path style="opacity:0.004" fill="#fefffe" d="M 8.5,34.5 C 9.83333,35.1667 9.83333,35.1667 8.5,34.5 Z"/></g>
<g><path style="opacity:1" fill="#e04929" d="M 110.5,44.5 C 98.6547,44.1717 86.988,44.5051 75.5,45.5C 72.0897,45.7737 68.5897,45.7737 65,45.5C 58.2037,46.1507 52.3704,48.8174 47.5,53.5C 45.5152,55.424 43.5152,57.424 41.5,59.5C 43.3357,56.8174 44.3357,53.8174 44.5,50.5C 45.8734,50.6567 47.2068,50.49 48.5,50C 45.682,47.8849 45.8486,46.0516 49,44.5C 69.5435,43.3772 90.0435,43.3772 110.5,44.5 Z"/></g>
<g><path style="opacity:0.577" fill="#c85b3f" d="M 110.5,44.5 C 111.167,44.5 111.5,44.8333 111.5,45.5C 99.1931,45.5366 87.1931,45.5366 75.5,45.5C 86.988,44.5051 98.6547,44.1717 110.5,44.5 Z"/></g>
<g><path style="opacity:0.004" fill="#fefffe" d="M 94.5,53.5 C 95.8333,54.1667 95.8333,54.1667 94.5,53.5 Z"/></g>
<g><path style="opacity:0.004" fill="#fefffe" d="M 125.5,56.5 C 126.833,57.1667 126.833,57.1667 125.5,56.5 Z"/></g>
<g><path style="opacity:0.004" fill="#fefffe" d="M 64.5,59.5 C 65.8333,60.1667 65.8333,60.1667 64.5,59.5 Z"/></g>
<g><path style="opacity:0.004" fill="#fefffe" d="M 57.5,60.5 C 58.8333,61.1667 58.8333,61.1667 57.5,60.5 Z"/></g>
<g><path style="opacity:0.004" fill="#fefffe" d="M 102.5,60.5 C 103.833,61.1667 103.833,61.1667 102.5,60.5 Z"/></g>
<g><path style="opacity:0.004" fill="#fefffe" d="M 94.5,61.5 C 95.8333,62.1667 95.8333,62.1667 94.5,61.5 Z"/></g>
<g><path style="opacity:0.004" fill="#fefffe" d="M 119.5,63.5 C 120.833,64.1667 120.833,64.1667 119.5,63.5 Z"/></g>
<g><path style="opacity:1" fill="#3b3b3b" d="M 57.5,63.5 C 67.6413,64.8616 77.6413,66.8616 87.5,69.5C 81.434,75.6989 74.1006,78.1989 65.5,77C 60.1438,74.1246 57.4772,69.6246 57.5,63.5 Z"/></g>
<g><path style="opacity:0.999" fill="#3b3b3b" d="M 131.5,63.5 C 133.167,63.5 134.833,63.5 136.5,63.5C 134.431,74.7759 127.931,79.4426 117,77.5C 112.905,75.203 109.072,72.5364 105.5,69.5C 114.243,67.4796 122.909,65.4796 131.5,63.5 Z"/></g>
<g><path style="opacity:0.004" fill="#fefffe" d="M 141.5,68.5 C 142.833,69.1667 142.833,69.1667 141.5,68.5 Z"/></g>
<g><path style="opacity:0.004" fill="#fefffe" d="M 155.5,70.5 C 156.833,71.1667 156.833,71.1667 155.5,70.5 Z"/></g>
<g><path style="opacity:0.153" fill="#ba5138" d="M 47.5,53.5 C 43.6901,59.5985 41.6901,66.2651 41.5,73.5C 42.1743,78.0715 42.341,82.7382 42,87.5C 42.6218,92.201 44.1218,96.5343 46.5,100.5C 45.8333,100.167 45.1667,99.8333 44.5,99.5C 44.1667,99.5 43.8333,99.5 43.5,99.5C 42.969,96.763 42.1356,94.0964 41,91.5C 40.2631,80.8066 40.4298,70.1399 41.5,59.5C 43.5152,57.424 45.5152,55.424 47.5,53.5 Z"/></g>
<g><path style="opacity:0.004" fill="#fefffe" d="M 47.5,71.5 C 48.8333,72.1667 48.8333,72.1667 47.5,71.5 Z"/></g>
<g><path style="opacity:0.004" fill="#fefffe" d="M 85.5,75.5 C 86.8333,76.1667 86.8333,76.1667 85.5,75.5 Z"/></g>
<g><path style="opacity:0.004" fill="#fefffe" d="M 101.5,76.5 C 102.833,77.1667 102.833,77.1667 101.5,76.5 Z"/></g>
<g><path style="opacity:0.004" fill="#fefffe" d="M 154.5,77.5 C 155.833,78.1667 155.833,78.1667 154.5,77.5 Z"/></g>
<g><path style="opacity:0.004" fill="#fefffe" d="M 137.5,80.5 C 138.833,81.1667 138.833,81.1667 137.5,80.5 Z"/></g>
<g><path style="opacity:0.004" fill="#fefffe" d="M 145.5,80.5 C 146.833,81.1667 146.833,81.1667 145.5,80.5 Z"/></g>
<g><path style="opacity:0.863" fill="#b94b34" d="M 8.5,60.5 C 8.5,73.8333 8.5,87.1667 8.5,100.5C 5.86821,87.1686 5.86821,73.8353 8.5,60.5 Z"/></g>
<g><path style="opacity:0.004" fill="#fefffe" d="M 84.5,82.5 C 85.8333,83.1667 85.8333,83.1667 84.5,82.5 Z"/></g>
<g><path style="opacity:0.004" fill="#fefffe" d="M 151.5,82.5 C 152.833,83.1667 152.833,83.1667 151.5,82.5 Z"/></g>
<g><path style="opacity:0.004" fill="#fefffe" d="M 132.5,85.5 C 133.833,86.1667 133.833,86.1667 132.5,85.5 Z"/></g>
<g><path style="opacity:0.004" fill="#fefffe" d="M 53.5,88.5 C 54.8333,89.1667 54.8333,89.1667 53.5,88.5 Z"/></g>
<g><path style="opacity:0.004" fill="#fefffe" d="M 139.5,90.5 C 140.833,91.1667 140.833,91.1667 139.5,90.5 Z"/></g>
<g><path style="opacity:1" fill="#ed4524" d="M 43.5,99.5 C 43.8333,99.5 44.1667,99.5 44.5,99.5C 44.7573,102.932 45.424,106.266 46.5,109.5C 50.7945,109.182 54.7945,110.015 58.5,112C 87.8314,112.5 117.165,112.667 146.5,112.5C 146.5,125.167 146.5,137.833 146.5,150.5C 113.809,150.805 81.1421,150.471 48.5,149.5C 45.8234,147.54 42.8234,146.04 39.5,145C 37.9578,143.259 37.1245,141.426 37,139.5C 36.6667,139.833 36.3333,140.167 36,140.5C 34.6996,137.919 32.8662,137.252 30.5,138.5C 28.9623,138.547 27.9623,137.88 27.5,136.5C 27.4142,135.504 27.7476,134.671 28.5,134C 26.4491,131.84 24.9491,129.34 24,126.5C 22.6667,125.833 21.3333,125.167 20,124.5C 19.3425,121.715 18.5091,119.049 17.5,116.5C 16.5,116.5 15.5,116.5 14.5,116.5C 14.5792,115.07 14.2458,113.736 13.5,112.5C 16.4327,110.262 16.0993,109.262 12.5,109.5C 12.5458,104.725 13.2125,100.392 14.5,96.5C 19.7921,95.5052 25.1254,95.1718 30.5,95.5C 30.2746,93.2841 31.1079,91.6174 33,90.5C 32.9616,86.3542 33.1282,82.6876 33.5,79.5C 34.9705,80.3805 35.8038,81.7139 36,83.5C 36.1845,87.6563 37.0179,91.6563 38.5,95.5C 39.6046,97.6114 41.2712,98.9447 43.5,99.5 Z"/></g>
<g><path style="opacity:0.004" fill="#fefffe" d="M 75.5,93.5 C 76.8333,94.1667 76.8333,94.1667 75.5,93.5 Z"/></g>
<g><path style="opacity:0.004" fill="#fefffe" d="M 136.5,96.5 C 137.833,97.1667 137.833,97.1667 136.5,96.5 Z"/></g>
<g><path style="opacity:0.004" fill="#fefffe" d="M 101.5,101.5 C 102.833,102.167 102.833,102.167 101.5,101.5 Z"/></g>
<g><path style="opacity:0.004" fill="#fefffe" d="M 157.5,103.5 C 158.833,104.167 158.833,104.167 157.5,103.5 Z"/></g>
<g><path style="opacity:0.004" fill="#fefffe" d="M 127.5,104.5 C 128.833,105.167 128.833,105.167 127.5,104.5 Z"/></g>
<g><path style="opacity:0.004" fill="#fefffe" d="M 84.5,106.5 C 85.8333,107.167 85.8333,107.167 84.5,106.5 Z"/></g>
<g><path style="opacity:0.004" fill="#fefffe" d="M 120.5,106.5 C 121.833,107.167 121.833,107.167 120.5,106.5 Z"/></g>
<g><path style="opacity:0.733" fill="#ba4e39" d="M 8.5,100.5 C 9.72507,101.152 10.3917,102.319 10.5,104C 11.613,109.164 12.613,114.331 13.5,119.5C 10.8508,113.532 9.18412,107.198 8.5,100.5 Z"/></g>
<g><path style="opacity:1" fill="#d84c30" d="M 44.5,99.5 C 45.1667,99.8333 45.8333,100.167 46.5,100.5C 48.7596,102.65 51.0929,104.817 53.5,107C 56.9419,108.184 60.2752,109.35 63.5,110.5C 91.3284,111.498 119.328,111.831 147.5,111.5C 147.5,124.833 147.5,138.167 147.5,151.5C 117.5,151.5 87.5,151.5 57.5,151.5C 54.1709,151.785 51.1709,151.118 48.5,149.5C 81.1421,150.471 113.809,150.805 146.5,150.5C 146.5,137.833 146.5,125.167 146.5,112.5C 117.165,112.667 87.8314,112.5 58.5,112C 54.7945,110.015 50.7945,109.182 46.5,109.5C 45.424,106.266 44.7573,102.932 44.5,99.5 Z"/></g>
<g><path style="opacity:0.004" fill="#fefffe" d="M 151.5,116.5 C 151.897,115.475 152.563,115.308 153.5,116C 152.906,116.464 152.239,116.631 151.5,116.5 Z"/></g>
<g><path style="opacity:0.004" fill="#fefffe" d="M 11.5,123.5 C 12.8333,124.167 12.8333,124.167 11.5,123.5 Z"/></g>
<g><path style="opacity:0.898" fill="#c35134" d="M 13.5,119.5 C 15.4331,120.642 16.9331,122.308 18,124.5C 18.49,125.793 18.6567,127.127 18.5,128.5C 16.0764,125.992 14.4097,122.992 13.5,119.5 Z"/></g>
<g><path style="opacity:0.004" fill="#fefffe" d="M 7.5,140.5 C 8.83333,141.167 8.83333,141.167 7.5,140.5 Z"/></g>
<g><path style="opacity:0.647" fill="#ce4a2d" d="M 27.5,136.5 C 27.9623,137.88 28.9623,138.547 30.5,138.5C 32.8662,137.252 34.6996,137.919 36,140.5C 36.3333,140.167 36.6667,139.833 37,139.5C 37.1245,141.426 37.9578,143.259 39.5,145C 42.8234,146.04 45.8234,147.54 48.5,149.5C 35.3619,146.935 25.3619,139.935 18.5,128.5C 19.1174,128.389 19.6174,128.056 20,127.5C 21.5839,131.252 24.0839,134.252 27.5,136.5 Z"/></g>
<g><path style="opacity:0.004" fill="#fefffe" d="M 16.5,145.5 C 17.8333,146.167 17.8333,146.167 16.5,145.5 Z"/></g>
<g><path style="opacity:0.004" fill="#fefffe" d="M 15.5,151.5 C 16.8333,152.167 16.8333,152.167 15.5,151.5 Z"/></g>
<g><path style="opacity:0.453" fill="#af4a35" d="M 63.5,110.5 C 91.8333,110.5 120.167,110.5 148.5,110.5C 148.5,124.5 148.5,138.5 148.5,152.5C 142.907,152.193 137.407,152.527 132,153.5C 107.069,152.838 82.2356,152.171 57.5,151.5C 87.5,151.5 117.5,151.5 147.5,151.5C 147.5,138.167 147.5,124.833 147.5,111.5C 119.328,111.831 91.3284,111.498 63.5,110.5 Z"/></g>
<g><path style="opacity:0.004" fill="#fefffe" d="M 65.5,156.5 C 64.8333,155.167 64.8333,155.167 65.5,156.5 Z"/></g>
</svg>
